<svg xmlns="http://www.w3.org/2000/svg" viewBox="0 0 256 256">
  <!-- Outer circle filled with brand gradient -->
  <defs>
    <linearGradient id="g" x1="0%" y1="0%" x2="100%" y2="100%">
      <stop offset="0%" stop-color="#6366f1"/>
      <stop offset="100%" stop-color="#06b6d4"/>
    </linearGradient>
  </defs>
  <!-- Background circle -->
  <circle cx="128" cy="128" r="128" fill="url(#g)"/>
  <!-- Compass duotone fill (the dial triangle, semi-transparent white) -->
  <path d="M128,32a96,96,0,1,0,96,96A96,96,0,0,0,128,32Zm16,112L80,176l32-64,64-32Z" fill="white" opacity="0.3"/>
  <!-- Compass outline paths in white -->
  <path d="M128,24A104,104,0,1,0,232,128,104.11,104.11,0,0,0,128,24Zm0,192a88,88,0,1,1,88-88A88.1,88.1,0,0,1,128,216ZM172.42,72.84l-64,32a8.05,8.05,0,0,0-3.58,3.58l-32,64A8,8,0,0,0,80,184a8.1,8.1,0,0,0,3.58-.84l64-32a8.05,8.05,0,0,0,3.58-3.58l32-64a8,8,0,0,0-10.74-10.74ZM138,138,97.89,158.11,118,118l40.15-20.07Z" fill="white"/>
</svg>
